# xmcd
#
# Track frame offsets: 
#        150
#        17035
#        28720
#        46141
#        63259
#        80488
#        93721
#        104464
#        120063
#        138635
#        154956
#        165136
#
# Disc length: 2441 seconds
#
# Revision: 0
# Processed by: cddbd v1.5.2PL0 Copyright (c) Steve Scherf et al.
# Submitted via: ExactAudioCopy v1.0b4
#
DISCID=8e09870c
DTITLE=Matchbox Bluesband - Flamethrower (LP)
DYEAR=1988
DGENRE=Blues
TTITLE0=Flamethrower
TTITLE1=D 27
TTITLE2=Small Talk
TTITLE3=Pile Of Shit
TTITLE4=I Wonder
TTITLE5=Come Back To Me Baby
TTITLE6=Chicken Shack Boogie
TTITLE7=What Is This Thing Called Love
TTITLE8=Plenty Fat and Plenty Unhealthy
TTITLE9=Down At The Store
TTITLE10=Chock-Full O'nuts
TTITLE11=Fill The Void
EXTD=
EXTT0=
EXTT1=
EXTT2=
EXTT3=
EXTT4=
EXTT5=
EXTT6=
EXTT7=
EXTT8=
EXTT9=
EXTT10=
EXTT11=
PLAYORDER=
